<svg xmlns="http://www.w3.org/2000/svg" width="178" height="82" viewBox="0 0 178 82"><g><g><g><g><path fill="#2f70b3" d="M41.307 69.755l.204-.188h-.377z"/></g><g><path fill="#2f70b3" d="M177.963 68.127V63.67L118.72 0 99.849 21.286l-7.446-6.713L70.025 35.2h8.77l13.652-12.583 7.873 7.097L118.827 8.84l24.967 26.832h4.127z"/></g><g><path fill="#093256" d="M16.432 55.461H9.61l4.746-11.072 2.077 4.807 2.708 6.265zm7.295 10.994h5.14l-12.179-27.88H12.18L0 66.455h4.983l2.847-6.683h13.09z"/></g><g><path fill="#093256" d="M38.437 62.065V38.773h-4.824v27.682H52.99v-4.39z"/></g><g><path fill="#093256" d="M72.954 44.413c1.085.835 1.627 2.071 1.627 3.713v.079c0 1.455-.536 2.647-1.607 3.573-1.071.926-2.534 1.39-4.385 1.39h-5.674V43.163h5.674c1.826 0 3.28.417 4.365 1.25zm-14.863-5.64v27.682h4.824v-8.898h5.51c1.533 0 2.973-.204 4.32-.612 1.348-.41 2.524-1.01 3.529-1.8a8.505 8.505 0 0 0 2.378-2.946c.581-1.173.872-2.537.872-4.093v-.08c0-1.396-.244-2.662-.731-3.796a8.308 8.308 0 0 0-2.096-2.926c-.91-.817-2.017-1.443-3.322-1.878-1.305-.435-2.762-.653-4.37-.653z"/></g><g><path fill="#093256" d="M84.507 66.455H105.189v-4.39H89.331V54.67h13.881v-4.39H89.332v-7.117h15.66v-4.39H84.506z"/></g><g><path fill="#093256" d="M111.279 66.455V38.773h4.824v27.682z"/></g><g><path fill="#093256" d="M147.66 38.773h-4.825v19.14l-14.8-19.14h-4.498v27.682h4.824V46.76l15.233 19.694h4.066V42.842z"/></g><g><path fill="#383737" d="M38.041 78.252a2.222 2.222 0 0 0-.552-.35 7.364 7.364 0 0 0-.633-.248 90.673 90.673 0 0 0-.632-.213 2.993 2.993 0 0 1-.553-.244 1.269 1.269 0 0 1-.391-.339.811.811 0 0 1-.148-.5c0-.156.028-.303.085-.438a.978.978 0 0 1 .253-.354c.113-.1.251-.18.418-.239a1.73 1.73 0 0 1 .574-.088c.231 0 .428.029.59.086.162.057.301.12.417.188.115.069.211.132.289.188.077.057.143.086.2.086.05 0 .093-.013.128-.038a.378.378 0 0 0 .098-.113l.236-.462a2.582 2.582 0 0 0-.871-.552 3.024 3.024 0 0 0-1.097-.191c-.358 0-.675.055-.95.166-.278.11-.51.258-.699.442a1.91 1.91 0 0 0-.58 1.37c0 .318.05.585.148.8.099.217.229.397.39.54.16.144.344.262.551.352.208.09.42.17.633.238.214.069.425.136.633.2.207.066.391.146.552.24.16.093.29.21.389.349a.902.902 0 0 1 .148.534c0 .198-.033.377-.1.537-.067.161-.163.299-.289.414a1.312 1.312 0 0 1-.46.27c-.18.063-.386.094-.617.094a2.145 2.145 0 0 1-.89-.185 2.018 2.018 0 0 1-.31-.176 8.89 8.89 0 0 1-.24-.176 2.984 2.984 0 0 0-.189-.133.287.287 0 0 0-.148-.052.231.231 0 0 0-.128.037.378.378 0 0 0-.098.093l-.28.462c.27.288.596.516.978.685.382.17.806.254 1.275.254.382 0 .722-.059 1.021-.176.3-.117.553-.278.759-.482.206-.204.362-.444.47-.72.106-.276.16-.572.16-.886 0-.298-.05-.55-.149-.753a1.586 1.586 0 0 0-.39-.517z"/></g><g><path fill="#383737" d="M49.434 79.298c-.12.35-.291.646-.512.889-.22.242-.488.428-.803.557a2.76 2.76 0 0 1-1.054.194c-.385 0-.735-.065-1.05-.194a2.22 2.22 0 0 1-.805-.557 2.506 2.506 0 0 1-.515-.889c-.12-.35-.18-.745-.18-1.187 0-.442.06-.838.18-1.19.12-.351.293-.648.515-.89a2.24 2.24 0 0 1 .806-.56c.314-.131.664-.197 1.049-.197.388 0 .74.066 1.054.196.315.13.583.317.803.56.22.243.392.54.512.891.121.352.181.748.181 1.19 0 .442-.06.837-.18 1.187zm.201-3.835a3.24 3.24 0 0 0-1.122-.76 3.755 3.755 0 0 0-1.448-.272c-.529 0-1.01.09-1.446.271-.435.181-.808.434-1.12.76a3.431 3.431 0 0 0-.723 1.165c-.17.45-.256.945-.256 1.484s.086 1.033.256 1.483c.171.45.412.838.723 1.163a3.23 3.23 0 0 0 1.12.755c.435.18.917.269 1.446.269.529 0 1.011-.09 1.448-.27.437-.178.811-.43 1.122-.754.311-.325.553-.713.723-1.163.17-.45.256-.944.256-1.483 0-.539-.085-1.034-.256-1.484a3.438 3.438 0 0 0-.723-1.164z"/></g><g><path fill="#383737" d="M56.02 81.705h.975v-3.092h2.957v-.793h-2.957v-2.516h3.459v-.793H56.02z"/></g><g><path fill="#383737" d="M64.947 75.33h2.334v6.375h.97V75.33h2.328v-.819h-5.632z"/></g><g><path fill="#383737" d="M84.011 74.582a.313.313 0 0 0-.113.16l-1.49 5c-.025.088-.046.181-.066.282-.02.1-.039.205-.056.316a9.115 9.115 0 0 0-.072-.316 3.107 3.107 0 0 0-.083-.281l-1.687-5a.405.405 0 0 0-.12-.166.324.324 0 0 0-.211-.066h-.281a.326.326 0 0 0-.214.073.367.367 0 0 0-.117.158l-1.693 5c-.03.088-.057.184-.082.29a9.3 9.3 0 0 0-.073.333 7.926 7.926 0 0 0-.13-.622l-1.486-5a.29.29 0 0 0-.114-.166.355.355 0 0 0-.218-.066h-.809l2.245 7.194h.874l1.832-5.487.05-.17.05-.191.048.19c.015.06.03.118.047.171l1.823 5.487h.873l2.244-7.194h-.758a.33.33 0 0 0-.213.07z"/></g><g><path fill="#383737" d="M90.776 79.035l1.13-2.922c.073-.18.144-.407.215-.678a6.535 6.535 0 0 0 .21.673l1.13 2.927zm.853-4.524l-2.876 7.194h.752a.32.32 0 0 0 .211-.07.349.349 0 0 0 .116-.16l.673-1.738h3.228l.672 1.737a.404.404 0 0 0 .12.166.327.327 0 0 0 .212.065h.753l-2.877-7.194z"/></g><g><path fill="#383737" d="M102.448 77.995h-1.024V75.28h1.063c.563 0 .985.11 1.265.326.282.218.422.541.422.97 0 .21-.037.403-.11.577a1.206 1.206 0 0 1-.329.45 1.513 1.513 0 0 1-.542.29c-.216.07-.465.103-.745.103zm1.648.266c.22-.124.405-.273.558-.449.152-.175.269-.374.349-.595.08-.22.12-.458.12-.713 0-.304-.052-.58-.156-.826a1.595 1.595 0 0 0-.479-.63 2.252 2.252 0 0 0-.82-.399 4.45 4.45 0 0 0-1.18-.138h-2.034v7.194h.97v-3.002h.737c.138 0 .239.018.304.053a.561.561 0 0 1 .183.173l1.868 2.57c.084.138.214.206.391.206h.864l-2.098-2.856a.97.97 0 0 0-.322-.307c.278-.063.526-.157.745-.28z"/></g><g><path fill="#383737" d="M111.735 78.457h2.801v-.763h-2.801v-2.39h3.459v-.793h-4.433v7.194h4.433l.005-.793h-3.464z"/></g><g><path fill="#383737" d="M137.285 78.252a2.224 2.224 0 0 0-.552-.35 7.325 7.325 0 0 0-.632-.248 85.66 85.66 0 0 0-.633-.213 2.994 2.994 0 0 1-.552-.244 1.274 1.274 0 0 1-.392-.339.813.813 0 0 1-.148-.5c0-.156.028-.303.085-.438a.98.98 0 0 1 .254-.354c.112-.1.251-.18.416-.239.166-.058.358-.088.575-.088.231 0 .428.029.59.086.162.057.301.12.417.188.116.069.212.132.289.188.076.057.143.086.2.086.05 0 .093-.013.128-.038a.366.366 0 0 0 .098-.113l.236-.462a2.58 2.58 0 0 0-.87-.552 3.026 3.026 0 0 0-1.098-.191 2.55 2.55 0 0 0-.951.166c-.276.11-.508.258-.698.442a1.908 1.908 0 0 0-.58 1.37c0 .318.05.585.149.8.098.217.228.397.389.54.16.144.344.262.552.352.207.09.418.17.632.238.215.069.425.136.633.2.207.066.391.146.552.24.161.093.29.21.39.349a.903.903 0 0 1 .147.534c0 .198-.033.377-.1.537-.067.161-.164.299-.29.414a1.31 1.31 0 0 1-.458.27c-.18.063-.387.094-.618.094a2.147 2.147 0 0 1-.891-.185 2.025 2.025 0 0 1-.309-.176 7.967 7.967 0 0 1-.24-.176 2.876 2.876 0 0 0-.189-.133.284.284 0 0 0-.148-.052.23.23 0 0 0-.128.037.379.379 0 0 0-.098.093l-.281.462c.271.288.598.516.98.685.38.17.806.254 1.274.254.382 0 .722-.059 1.022-.176.3-.117.552-.278.758-.482.206-.204.362-.444.47-.72a2.42 2.42 0 0 0 .16-.886c0-.298-.05-.55-.148-.753a1.586 1.586 0 0 0-.392-.517z"/></g><g><path fill="#383737" d="M151.533 74.582a.311.311 0 0 0-.113.16l-1.491 5c-.024.088-.045.181-.066.282-.02.1-.038.205-.055.316a8.853 8.853 0 0 0-.072-.316 3.367 3.367 0 0 0-.083-.281l-1.687-5a.401.401 0 0 0-.12-.166.323.323 0 0 0-.211-.066h-.282a.325.325 0 0 0-.213.073.367.367 0 0 0-.118.158l-1.692 5a3.15 3.15 0 0 0-.082.29c-.026.104-.05.216-.073.333a8.143 8.143 0 0 0-.13-.622l-1.487-5a.291.291 0 0 0-.113-.166.355.355 0 0 0-.218-.066h-.808l2.243 7.194h.874l1.833-5.487a5.036 5.036 0 0 0 .1-.361l.048.19c.014.06.03.118.047.171l1.822 5.487h.874l2.244-7.194h-.758a.33.33 0 0 0-.213.07z"/></g><g><path fill="#383737" d="M157.595 81.705v-7.194h.974v7.194z"/></g><g><path fill="#383737" d="M167.959 78.252a2.221 2.221 0 0 0-.552-.35 7.42 7.42 0 0 0-.633-.248 96.328 96.328 0 0 0-.632-.213 2.978 2.978 0 0 1-.553-.244 1.268 1.268 0 0 1-.391-.339.81.81 0 0 1-.148-.5c0-.156.028-.303.085-.438a.974.974 0 0 1 .254-.354c.112-.1.25-.18.416-.239.166-.058.358-.088.575-.088.231 0 .428.029.59.086.162.057.301.12.416.188.116.069.213.132.29.188.076.057.143.086.2.086.05 0 .093-.013.128-.038a.373.373 0 0 0 .098-.113l.236-.462a2.584 2.584 0 0 0-.87-.552 3.026 3.026 0 0 0-1.098-.191c-.358 0-.675.055-.951.166a2.11 2.11 0 0 0-.698.442 1.898 1.898 0 0 0-.58 1.37c0 .318.05.585.149.8.098.217.228.397.388.54.16.144.345.262.552.352.208.09.419.17.633.238.214.069.425.136.633.2.207.066.391.146.552.24.16.093.29.21.389.349a.902.902 0 0 1 .148.534c0 .198-.033.377-.1.537-.068.161-.164.299-.29.414a1.306 1.306 0 0 1-.459.27c-.18.063-.386.094-.617.094a2.15 2.15 0 0 1-.891-.185 1.99 1.99 0 0 1-.309-.176 8.37 8.37 0 0 1-.241-.176 2.911 2.911 0 0 0-.188-.133.286.286 0 0 0-.148-.052.231.231 0 0 0-.128.037.374.374 0 0 0-.098.093l-.281.462c.27.288.597.516.979.685.381.17.807.254 1.275.254.382 0 .722-.059 1.021-.176.3-.117.553-.278.759-.482.205-.204.362-.444.469-.72.107-.276.16-.572.16-.886 0-.298-.049-.55-.148-.753a1.58 1.58 0 0 0-.391-.517z"/></g><g><path fill="#383737" d="M177.138 75.701c.077.057.144.086.201.086.05 0 .093-.013.128-.038a.365.365 0 0 0 .098-.113l.236-.462a2.584 2.584 0 0 0-.87-.552 3.026 3.026 0 0 0-1.098-.191c-.046 0-.086.009-.13.01-.303.013-.58.06-.821.156-.277.11-.51.258-.698.442a1.904 1.904 0 0 0-.58 1.37c0 .318.05.585.148.8.099.217.228.397.389.54.161.144.345.262.552.352.208.09.418.17.633.238.214.069.425.136.633.2.207.066.39.146.552.24.16.093.29.21.39.349a.902.902 0 0 1 .147.534c0 .198-.034.377-.1.537-.068.161-.164.299-.29.414a1.307 1.307 0 0 1-.459.27c-.18.063-.386.095-.617.095a2.15 2.15 0 0 1-.891-.186 2.002 2.002 0 0 1-.309-.176 8.192 8.192 0 0 1-.241-.176 2.845 2.845 0 0 0-.188-.133.285.285 0 0 0-.148-.052.23.23 0 0 0-.128.037.384.384 0 0 0-.098.093l-.281.462c.27.288.597.516.979.685.381.17.806.254 1.275.254.381 0 .722-.059 1.021-.176.3-.117.553-.278.759-.482.205-.204.362-.444.469-.72.107-.276.16-.572.16-.886 0-.298-.049-.55-.148-.753a1.585 1.585 0 0 0-.391-.517 2.22 2.22 0 0 0-.552-.35 7.357 7.357 0 0 0-.633-.248 94.186 94.186 0 0 0-.632-.213 2.991 2.991 0 0 1-.553-.244 1.273 1.273 0 0 1-.391-.339.811.811 0 0 1-.148-.5c0-.156.028-.303.085-.439a.976.976 0 0 1 .253-.353c.113-.1.252-.18.417-.239.166-.058.357-.088.575-.088.23 0 .428.029.59.086.03.01.055.022.082.032.126.049.24.1.334.156.116.069.212.132.29.188z"/></g><g><path fill="#d21212" d="M121.628 77.377h1.91v-1.909h1.607v1.91h1.91v1.607h-1.91v1.91h-1.608v-1.91h-1.909zm-.812 4.233h7.014v-6.951h-7.014z"/></g><g><path fill="#2f70b3" d="M45.888 57.674h7.319v-7.32z"/></g></g></g></g></svg>